<svg width="36" height="36" viewBox="0 0 36 36" fill="none" xmlns="http://www.w3.org/2000/svg">
<circle cx="18" cy="18" r="18" fill="#A68144"/>
<path d="M17.9978 6.95317C15.2364 6.95317 12.9978 9.19177 12.9978 11.9532C12.9978 14.7146 15.2364 16.9532 17.9978 16.9532C20.7592 16.9532 22.9978 14.7146 22.9978 11.9532C22.9978 9.19177 20.7592 6.95317 17.9978 6.95317ZM14.4666 18.2657C11.8523 18.9802 9.9978 21.2534 9.9978 23.9532V25.9532C9.9978 26.5055 10.4455 26.9532 10.9978 26.9532H24.9978C25.5501 26.9532 25.9978 26.5055 25.9978 25.9532V23.9532C25.9978 21.2534 24.1433 18.9802 21.529 18.2657C21.3049 18.2044 21.0847 18.2327 20.8728 18.3282C19.9573 18.7408 18.9827 18.9532 17.9978 18.9532C17.0129 18.9532 16.0383 18.7408 15.1228 18.3282C14.9109 18.2327 14.6907 18.2044 14.4666 18.2657Z" fill="white"/>
</svg>
