<svg width="349" height="64" viewBox="0 0 349 64" fill="none" xmlns="http://www.w3.org/2000/svg">
<rect x="8" y="8" width="48" height="48" rx="12" fill="#911016"/>
<path d="M28.755 38.5V27.67H28.565L21.44 38.5H17.83V25.2H20.585V36.03H20.775L27.9 25.2H31.51V38.5H28.755ZM39.4967 26.245C38.5847 26.245 37.7297 26.378 36.9317 26.644C36.1463 26.8973 35.3927 27.3343 34.6707 27.955L33.8157 26.815C34.5377 26.1943 35.399 25.7067 36.3997 25.352C37.4003 24.9973 38.496 24.82 39.6867 24.82C40.662 24.82 41.517 24.9087 42.2517 25.086C42.9863 25.2633 43.6007 25.5103 44.0947 25.827C44.5887 26.1437 44.956 26.5173 45.1967 26.948C45.45 27.3787 45.5767 27.841 45.5767 28.335C45.5767 29.1457 45.3803 29.817 44.9877 30.349C44.595 30.8683 43.968 31.2737 43.1067 31.565C44.0567 31.8057 44.7977 32.211 45.3297 32.781C45.8743 33.3383 46.1467 34.073 46.1467 34.985C46.1467 35.5297 46.0137 36.0427 45.7477 36.524C45.4943 36.9927 45.089 37.4043 44.5317 37.759C43.987 38.101 43.284 38.3733 42.4227 38.576C41.5613 38.7787 40.5227 38.88 39.3067 38.88C38.0653 38.88 36.919 38.6837 35.8677 38.291C34.829 37.8983 33.9487 37.3663 33.2267 36.695L34.1767 35.555C34.8987 36.2263 35.665 36.714 36.4757 37.018C37.2863 37.3093 38.1667 37.455 39.1167 37.455C39.8513 37.455 40.4783 37.3917 40.9977 37.265C41.517 37.1257 41.935 36.9357 42.2517 36.695C42.581 36.4543 42.8217 36.1757 42.9737 35.859C43.1257 35.5297 43.2017 35.175 43.2017 34.795C43.2017 34.035 42.961 33.4523 42.4797 33.047C41.9983 32.629 41.2573 32.42 40.2567 32.42H36.2667V30.995H39.8767C41.7133 30.995 42.6317 30.1717 42.6317 28.525C42.6317 27.8537 42.3593 27.309 41.8147 26.891C41.27 26.4603 40.4973 26.245 39.4967 26.245Z" fill="white"/>
<path d="M88.125 40.5V26.25H87.875L78.5 40.5H73.75V23H77.375V37.25H77.625L87 23H91.75V40.5H88.125ZM109.009 27.5V40.5H105.509V34.75H98.7588V40.5H95.2588V27.5H98.7588V33H105.509V27.5H109.009ZM119.52 27C120.053 27 120.586 27.05 121.12 27.15C121.653 27.2333 122.161 27.3583 122.645 27.525C123.145 27.675 123.603 27.8667 124.02 28.1C124.453 28.3333 124.828 28.5917 125.145 28.875L124.145 30.375C123.461 29.8583 122.761 29.4583 122.045 29.175C121.345 28.8917 120.586 28.75 119.77 28.75C119.17 28.75 118.62 28.85 118.12 29.05C117.62 29.2333 117.186 29.5417 116.82 29.975C116.453 30.3917 116.161 30.9333 115.945 31.6C115.745 32.2667 115.645 33.0667 115.645 34C115.645 34.9333 115.745 35.7333 115.945 36.4C116.161 37.0667 116.461 37.6167 116.845 38.05C117.228 38.4667 117.686 38.775 118.22 38.975C118.77 39.1583 119.37 39.25 120.02 39.25C120.836 39.25 121.595 39.1083 122.295 38.825C123.011 38.5417 123.711 38.1417 124.395 37.625L125.395 39.125C125.078 39.4083 124.703 39.6667 124.27 39.9C123.853 40.1333 123.395 40.3333 122.895 40.5C122.411 40.65 121.903 40.7667 121.37 40.85C120.836 40.95 120.303 41 119.77 41C118.586 41 117.503 40.8417 116.52 40.525C115.553 40.225 114.728 39.7833 114.045 39.2C113.361 38.6 112.828 37.8667 112.445 37C112.078 36.1333 111.895 35.1333 111.895 34C111.895 32.8833 112.078 31.8917 112.445 31.025C112.828 30.1417 113.353 29.4083 114.02 28.825C114.686 28.225 115.486 27.775 116.42 27.475C117.353 27.1583 118.386 27 119.52 27ZM140.034 29.25H134.784V40.5H131.284V29.25H126.034V27.5H140.034V29.25ZM156.036 27.5V40.5H152.536V30.75H152.286L146.536 40.5H142.036V27.5H145.536V37.25H145.786L151.536 27.5H156.036ZM172.041 29.25H166.791V40.5H163.291V29.25H158.041V27.5H172.041V29.25ZM181.668 45H178.168L179.918 40.5H177.793L172.543 27.5H176.043L180.418 38.375H180.668L184.793 27.5H188.293L181.668 45ZM202.803 29.25H197.553V40.5H194.053V29.25H188.803V27.5H202.803V29.25ZM225.17 30.625C225.17 32.2583 224.128 33.2583 222.045 33.625C223.245 33.8083 224.145 34.2 224.745 34.8C225.362 35.3833 225.67 36.1167 225.67 37C225.67 37.5667 225.537 38.0917 225.27 38.575C225.02 39.0583 224.612 39.4833 224.045 39.85C223.478 40.2 222.753 40.475 221.87 40.675C220.987 40.8917 219.92 41 218.67 41C217.287 41 216.028 40.8167 214.895 40.45C213.778 40.0667 212.87 39.625 212.17 39.125L213.17 37.625C213.87 38.0583 214.637 38.4417 215.47 38.775C216.303 39.0917 217.287 39.25 218.42 39.25C219.737 39.25 220.645 39.0417 221.145 38.625C221.662 38.1917 221.92 37.5667 221.92 36.75C221.92 36.1833 221.712 35.7083 221.295 35.325C220.878 34.9417 220.295 34.75 219.545 34.75H215.17V33H219.045C219.795 33 220.378 32.8083 220.795 32.425C221.212 32.025 221.42 31.5083 221.42 30.875C221.42 30.2417 221.195 29.7333 220.745 29.35C220.312 28.95 219.62 28.75 218.67 28.75C217.603 28.75 216.653 28.9167 215.82 29.25C215.003 29.5667 214.245 29.9417 213.545 30.375L212.545 28.875C213.245 28.375 214.153 27.9417 215.27 27.575C216.387 27.1917 217.603 27 218.92 27C219.987 27 220.912 27.1 221.695 27.3C222.478 27.5 223.128 27.775 223.645 28.125C224.162 28.4583 224.545 28.8417 224.795 29.275C225.045 29.7083 225.17 30.1583 225.17 30.625ZM231.41 36.375C231.41 37.9583 232.368 38.75 234.285 38.75H237.785V34H234.285C232.368 34 231.41 34.7917 231.41 36.375ZM237.785 32.25C237.785 31.05 237.468 30.1667 236.835 29.6C236.218 29.0333 235.41 28.75 234.41 28.75C233.66 28.75 232.927 28.8667 232.21 29.1C231.493 29.3167 230.852 29.6167 230.285 30L229.41 28.5C229.777 28.25 230.177 28.0333 230.61 27.85C231.06 27.6667 231.518 27.5167 231.985 27.4C232.452 27.2667 232.91 27.1667 233.36 27.1C233.827 27.0333 234.26 27 234.66 27C235.727 27 236.668 27.125 237.485 27.375C238.302 27.625 238.993 27.9833 239.56 28.45C240.127 28.9167 240.552 29.475 240.835 30.125C241.135 30.7583 241.285 31.4667 241.285 32.25V40.5H234.285C232.018 40.5 230.343 40.1583 229.26 39.475C228.193 38.7917 227.66 37.7583 227.66 36.375C227.66 34.9917 228.193 33.9583 229.26 33.275C230.343 32.5917 232.018 32.25 234.285 32.25H237.785ZM258.398 27.5V40.5H254.898V29.25H248.148V40.5H244.648V27.5H258.398ZM269.534 45H266.034L267.784 40.5H265.659L260.409 27.5H263.909L268.284 38.375H268.534L272.659 27.5H276.159L269.534 45ZM284.681 27C285.214 27 285.747 27.05 286.281 27.15C286.814 27.2333 287.322 27.3583 287.806 27.525C288.306 27.675 288.764 27.8667 289.181 28.1C289.614 28.3333 289.989 28.5917 290.306 28.875L289.306 30.375C288.622 29.8583 287.922 29.4583 287.206 29.175C286.506 28.8917 285.747 28.75 284.931 28.75C284.331 28.75 283.781 28.85 283.281 29.05C282.781 29.2333 282.347 29.5417 281.981 29.975C281.614 30.3917 281.322 30.9333 281.106 31.6C280.906 32.2667 280.806 33.0667 280.806 34C280.806 34.9333 280.906 35.7333 281.106 36.4C281.322 37.0667 281.622 37.6167 282.006 38.05C282.389 38.4667 282.847 38.775 283.381 38.975C283.931 39.1583 284.531 39.25 285.181 39.25C285.997 39.25 286.756 39.1083 287.456 38.825C288.172 38.5417 288.872 38.1417 289.556 37.625L290.556 39.125C290.239 39.4083 289.864 39.6667 289.431 39.9C289.014 40.1333 288.556 40.3333 288.056 40.5C287.572 40.65 287.064 40.7667 286.531 40.85C285.997 40.95 285.464 41 284.931 41C283.747 41 282.664 40.8417 281.681 40.525C280.714 40.225 279.889 39.7833 279.206 39.2C278.522 38.6 277.989 37.8667 277.606 37C277.239 36.1333 277.056 35.1333 277.056 34C277.056 32.8833 277.239 31.8917 277.606 31.025C277.989 30.1417 278.514 29.4083 279.181 28.825C279.847 28.225 280.647 27.775 281.581 27.475C282.514 27.1583 283.547 27 284.681 27ZM299.309 34.875H296.684V40.5H293.184V27.5H296.684V33.125H299.309L303.184 27.5H306.934L302.559 33.875L307.184 40.5H303.184L299.309 34.875ZM315.955 39.375C316.488 39.375 316.988 39.275 317.455 39.075C317.922 38.875 318.33 38.5667 318.68 38.15C319.03 37.7167 319.305 37.1583 319.505 36.475C319.722 35.7917 319.83 34.9667 319.83 34C319.83 33.0333 319.722 32.2083 319.505 31.525C319.305 30.8417 319.03 30.2917 318.68 29.875C318.33 29.4417 317.922 29.125 317.455 28.925C316.988 28.725 316.488 28.625 315.955 28.625C315.422 28.625 314.922 28.725 314.455 28.925C313.988 29.125 313.58 29.4417 313.23 29.875C312.88 30.2917 312.597 30.8417 312.38 31.525C312.18 32.2083 312.08 33.0333 312.08 34C312.08 34.9667 312.18 35.7917 312.38 36.475C312.597 37.1583 312.88 37.7167 313.23 38.15C313.58 38.5667 313.988 38.875 314.455 39.075C314.922 39.275 315.422 39.375 315.955 39.375ZM315.955 27C317.072 27 318.097 27.1583 319.03 27.475C319.98 27.775 320.788 28.225 321.455 28.825C322.122 29.4083 322.638 30.1417 323.005 31.025C323.388 31.8917 323.58 32.8833 323.58 34C323.58 35.1333 323.388 36.1333 323.005 37C322.638 37.8667 322.122 38.6 321.455 39.2C320.788 39.7833 319.98 40.225 319.03 40.525C318.097 40.8417 317.072 41 315.955 41C314.822 41 313.788 40.8417 312.855 40.525C311.922 40.225 311.122 39.7833 310.455 39.2C309.788 38.6 309.263 37.8667 308.88 37C308.513 36.1333 308.33 35.1333 308.33 34C308.33 32.8833 308.513 31.8917 308.88 31.025C309.263 30.1417 309.788 29.4083 310.455 28.825C311.122 28.225 311.922 27.775 312.855 27.475C313.788 27.1583 314.822 27 315.955 27ZM339.21 31.125C339.21 31.7583 338.977 32.3 338.51 32.75C338.06 33.2 337.335 33.4917 336.335 33.625C337.535 33.8083 338.435 34.1917 339.035 34.775C339.652 35.3417 339.96 36 339.96 36.75C339.96 37.2833 339.835 37.7833 339.585 38.25C339.352 38.7 338.985 39.0917 338.485 39.425C337.985 39.7583 337.352 40.025 336.585 40.225C335.818 40.4083 334.902 40.5 333.835 40.5H326.46V27.5H333.085C334.152 27.5 335.068 27.6 335.835 27.8C336.602 27.9833 337.235 28.2417 337.735 28.575C338.235 28.8917 338.602 29.275 338.835 29.725C339.085 30.1583 339.21 30.625 339.21 31.125ZM333.835 38.75C334.585 38.75 335.168 38.5583 335.585 38.175C336.002 37.7917 336.21 37.3167 336.21 36.75C336.21 36.1833 336.002 35.7083 335.585 35.325C335.168 34.9417 334.585 34.75 333.835 34.75H329.96V38.75H333.835ZM333.085 33C333.835 33 334.418 32.8167 334.835 32.45C335.252 32.0667 335.46 31.625 335.46 31.125C335.46 30.625 335.252 30.1917 334.835 29.825C334.418 29.4417 333.835 29.25 333.085 29.25H329.96V33H333.085Z" fill="#911016"/>
</svg>
